<svg enable-background="new 0 0 756 240.6" viewBox="0 0 756 240.6" xmlns="http://www.w3.org/2000/svg"><path d="m61.6 8.6 58.8 166 58.5-166h61.9v228.8h-47.3v-62.6l4.7-108-61.8 170.6h-32.4l-61.6-170.3 4.7 107.8v62.6h-47.1v-228.9zm197.7 14.8c-.2-6.3 2.3-12.4 6.8-16.8s10.8-6.6 18.6-6.6 13.9 2.2 18.5 6.6 7.1 10.5 6.9 16.8c0 6.9-2.3 12.6-7 17s-10.7 6.6-18.3 6.6c-7.7 0-13.8-2.2-18.5-6.6s-7-10.1-7-17zm48.3 214.1h-45.6v-170.1h45.6zm205.1-34.3c-6.8 0-11.4-1.4-13.8-4.1s-3.6-7.2-3.6-13.5v-84.9h29.1v-33.3h-29.1v-41.8h-45.4v41.8h-50.5v-41.8h-45.4v41.8h-24.9v33.3h24.9v91.6c.6 32.2 16.9 48.3 48.7 48.3 9.3 0 18.6-1.4 27.5-4.1v-34.4c-4.4.8-8.9 1.1-13.4 1.1-6.8 0-11.4-1.4-13.8-4.1s-3.6-7.2-3.6-13.5v-84.9h50.5v91.6c.6 32.2 16.9 48.3 48.7 48.3 9.3 0 18.6-1.4 27.5-4.1v-34.4c-4.4.8-8.9 1.2-13.4 1.1zm129-12.7c0-5.5-2.8-9.9-8.3-13.1s-14.3-6.1-26.5-8.6c-40.5-8.5-60.7-25.7-60.7-51.6 0-15.1 6.3-27.7 18.8-37.8s28.9-15.2 49.1-15.1c21.6 0 38.8 5.1 51.8 15.3s19.4 23.4 19.4 39.6h-45.3c.2-6-2.1-11.8-6.3-16.1-4.2-4.2-10.7-6.4-19.6-6.4-7.7 0-13.6 1.7-17.8 5.2-4.1 3.2-6.4 8-6.3 13.2 0 5 2.4 9.1 7.2 12.2s12.8 5.8 24.1 8c9.7 1.8 19.3 4.4 28.6 7.6 24 8.8 36 24 36 45.7 0 15.5-6.7 28.1-20 37.6-13.3 9.6-30.5 14.4-51.5 14.4-14.2 0-26.9-2.5-38-7.6s-19.8-12.1-26-20.9c-6.1-8.3-9.3-18.4-9.3-28.7h43.1c.4 8.1 3.4 14.3 9 18.6s13 6.4 22.3 6.4c8.7 0 15.2-1.7 19.7-5 4.1-2.9 6.6-7.8 6.5-12.9zm62.9 24.7c0-7.2 2.4-13.1 7.3-17.6s11-6.8 18.3-6.8c7.4 0 13.6 2.3 18.5 6.8s7.3 10.4 7.3 17.6c0 7.1-2.4 12.9-7.2 17.4s-11 6.7-18.5 6.7-13.6-2.2-18.4-6.7c-4.9-4.5-7.3-10.3-7.3-17.4z" fill="#fff"/></svg>