<?xml version="1.0" standalone="no"?>
<!DOCTYPE svg PUBLIC "-//W3C//DTD SVG 20010904//EN"
 "http://www.w3.org/TR/2001/REC-SVG-20010904/DTD/svg10.dtd">
<svg version="1.0" xmlns="http://www.w3.org/2000/svg"
 width="3024.000000pt" height="3024.000000pt" viewBox="0 0 3024.000000 3024.000000"
 preserveAspectRatio="xMidYMid meet">
<metadata>
Created by potrace 1.14, written by Peter Selinger 2001-2017
</metadata>
<g transform="translate(0.000000,3024.000000) scale(0.100000,-0.100000)"
fill="#000000" stroke="none">
<path d="M11239 19925 c-2 -1 -24 -6 -49 -10 -122 -18 -193 -37 -278 -76 -35
-16 -65 -29 -68 -29 -8 0 -126 -81 -152 -104 -69 -62 -135 -135 -152 -166 -7
-14 -17 -27 -21 -30 -13 -9 -89 -163 -89 -182 0 -9 -4 -19 -9 -22 -8 -6 -20
-46 -27 -98 -2 -15 -8 -45 -12 -66 -15 -66 -1 -361 17 -384 2 -2 5 -14 8 -28
6 -33 11 -54 13 -60 1 -3 2 -8 1 -12 0 -5 4 -8 9 -8 5 0 9 -3 7 -8 -4 -13 36
-95 82 -167 103 -160 287 -303 466 -361 148 -48 221 -59 405 -59 80 0 171 3
202 7 140 18 334 88 399 144 8 8 20 14 25 14 5 0 24 14 42 30 18 17 36 30 40
31 6 1 45 43 150 163 6 8 12 19 12 25 0 6 5 11 10 11 6 0 10 7 10 15 0 8 5 15
10 15 6 0 9 3 8 8 0 4 13 37 30 74 18 37 32 72 32 77 0 6 6 30 14 53 23 69 28
105 32 252 3 104 1 142 -9 148 -8 5 -8 8 -1 8 9 0 9 12 2 43 -5 23 -12 53 -14
66 -3 14 -7 28 -10 33 -3 4 -7 18 -9 29 -6 31 -90 200 -112 226 -10 12 -27 34
-38 49 -39 54 -125 134 -197 182 -68 45 -196 108 -236 116 -9 1 -24 6 -32 9
-21 8 -70 19 -103 23 -15 2 -39 7 -55 10 -28 7 -347 15 -353 9z"/>
<path d="M4 19581 c-2 -2 -4 -2063 -4 -4580 l0 -4576 933 1 c512 1 937 2 943
3 11 1 12 2576 0 2741 -3 47 -8 144 -11 215 -4 125 -10 254 -21 490 -3 61 -7
160 -9 220 -2 61 -6 155 -9 210 -9 197 -19 421 -20 487 0 38 -5 68 -9 68 -4 0
-3 8 2 19 6 10 7 21 4 25 -4 3 -8 46 -9 94 -1 48 -5 150 -8 227 -3 77 -9 201
-12 275 -3 74 -7 167 -9 205 -2 39 -6 133 -9 210 -7 178 -15 356 -21 465 -3
47 -7 155 -10 240 -3 85 -5 155 -6 155 -1 0 -2 27 -4 60 -9 226 -17 371 -21
377 -3 5 -1 8 3 8 5 0 23 -42 41 -92 18 -51 37 -102 42 -113 5 -11 14 -38 21
-60 7 -22 17 -44 21 -49 4 -6 8 -20 8 -33 0 -13 4 -23 8 -23 5 0 9 -6 9 -12 1
-7 17 -58 38 -113 20 -55 43 -118 50 -140 7 -22 27 -78 45 -125 18 -47 33 -89
34 -95 2 -5 8 -23 15 -40 7 -16 28 -73 46 -125 18 -52 48 -133 65 -180 17 -47
33 -89 34 -95 2 -5 6 -17 9 -25 54 -144 87 -241 87 -254 0 -9 4 -16 8 -16 5 0
9 -6 9 -12 1 -7 26 -83 58 -168 31 -85 70 -191 85 -235 15 -44 33 -93 40 -110
7 -16 14 -35 16 -42 1 -6 19 -55 39 -110 20 -54 38 -105 40 -113 2 -8 10 -31
18 -50 8 -19 16 -39 17 -45 1 -5 7 -21 13 -35 5 -14 11 -29 12 -35 2 -5 17
-48 35 -95 17 -47 33 -92 35 -100 2 -8 4 -17 5 -20 1 -3 2 -8 1 -12 0 -5 4 -8
9 -8 5 0 9 -3 8 -7 -1 -5 6 -33 17 -63 11 -30 20 -57 20 -60 1 -3 5 -12 8 -20
12 -28 109 -295 112 -310 2 -8 20 -57 40 -108 19 -51 35 -97 35 -102 0 -6 9
-29 19 -53 11 -23 25 -60 31 -82 7 -22 17 -45 22 -52 5 -7 7 -17 4 -22 -4 -5
-2 -12 3 -15 5 -3 17 -32 27 -64 9 -31 21 -62 26 -69 5 -6 11 -24 14 -38 3
-15 12 -41 20 -56 8 -16 12 -29 9 -29 -3 0 -1 -9 5 -20 11 -20 78 -202 85
-230 2 -8 9 -28 16 -45 6 -16 13 -34 15 -40 2 -5 20 -55 40 -110 20 -55 45
-122 54 -150 10 -27 57 -158 105 -290 47 -132 98 -271 111 -310 14 -38 30 -81
36 -95 5 -14 16 -45 24 -70 8 -25 19 -54 24 -65 9 -22 17 -46 19 -58 0 -4 7
-20 15 -36 9 -16 12 -31 9 -35 -4 -3 -1 -6 6 -6 7 0 10 -4 6 -10 -3 -5 -1 -17
4 -27 9 -17 21 -48 26 -65 2 -5 4 -10 5 -13 1 -3 3 -8 5 -12 2 -11 15 -44 25
-68 8 -17 32 -91 35 -105 1 -3 6 -16 12 -30 16 -38 64 -168 67 -183 4 -15 14
-43 32 -84 8 -17 14 -35 14 -40 0 -5 16 -49 35 -98 19 -49 32 -91 30 -93 -3
-3 -1 -10 4 -16 5 -6 23 -49 39 -96 17 -47 42 -119 57 -160 14 -41 31 -83 36
-94 6 -10 13 -30 15 -44 3 -15 11 -33 17 -41 7 -8 12 -17 12 -20 0 -3 288 -6
639 -6 690 0 659 -3 672 53 4 15 10 32 14 37 4 6 11 24 15 40 10 34 8 29 26
75 7 19 12 38 11 43 -1 4 2 7 6 7 5 0 9 6 9 13 0 12 14 54 80 230 15 39 28 74
29 77 0 3 4 12 7 20 7 18 47 131 51 145 2 6 7 21 13 35 5 14 20 54 32 90 13
36 30 79 37 97 8 17 14 35 14 40 0 6 7 24 16 41 8 18 13 36 9 42 -3 5 -3 10 2
10 4 0 13 17 20 38 6 20 17 51 24 67 7 17 13 35 15 40 5 18 66 189 77 215 6
14 11 27 11 30 1 3 6 19 13 35 6 17 37 102 68 190 31 88 61 169 66 180 6 12
11 27 13 35 2 8 8 29 15 45 7 17 19 50 27 75 8 25 19 54 23 65 36 88 134 360
134 373 0 6 3 12 7 12 4 0 7 6 7 13 1 6 19 62 41 122 22 61 52 144 67 185 15
41 31 84 37 95 5 12 10 27 12 35 2 8 9 29 16 45 7 17 14 35 16 42 4 23 27 88
33 98 4 6 15 37 26 70 10 33 22 65 26 70 4 6 10 22 13 35 3 14 28 86 56 160
28 74 53 143 55 154 2 10 9 23 14 30 5 6 10 14 10 19 1 4 1 8 2 10 0 1 2 9 4
17 7 35 10 45 15 50 3 3 13 30 24 60 10 30 22 64 26 75 4 11 8 23 9 27 1 4 10
28 21 53 11 25 17 45 13 45 -3 0 -1 6 4 13 5 6 22 48 37 92 15 44 31 89 36
100 27 65 90 248 90 260 0 7 3 15 8 17 4 2 23 50 42 108 19 58 37 110 41 115
3 6 18 44 32 85 27 80 213 595 224 620 3 8 7 18 8 23 2 4 4 9 5 12 1 3 3 8 5
13 1 4 4 14 8 22 3 8 13 38 22 65 19 54 53 147 66 180 18 46 70 191 74 205 2
8 4 16 5 18 2 1 3 5 5 10 1 4 4 14 8 22 11 30 89 245 91 255 4 15 17 48 27 70
6 12 11 27 13 35 3 15 11 39 26 75 12 30 23 59 25 70 2 6 23 66 49 134 25 69
46 130 46 136 0 6 6 19 13 29 12 16 13 8 13 -58 -1 -42 -3 -76 -6 -76 -3 0 -5
-37 -6 -83 -1 -45 -4 -147 -8 -227 -10 -222 -18 -428 -20 -497 0 -35 -5 -63
-9 -63 -4 0 -3 -8 2 -19 6 -10 8 -21 5 -24 -3 -3 -8 -61 -10 -129 -2 -68 -6
-161 -8 -208 -4 -69 -13 -285 -20 -457 -1 -18 -4 -35 -8 -38 -3 -4 -2 -19 2
-35 4 -16 6 -30 4 -33 -2 -2 -6 -64 -10 -138 -8 -190 -11 -262 -19 -449 -5
-91 -8 -213 -9 -272 -1 -60 -3 -108 -6 -108 -3 0 -6 -28 -6 -62 -1 -58 -8
-235 -20 -501 -2 -60 -6 -153 -9 -208 -2 -54 -7 -104 -11 -110 -5 -8 -3 -9 6
-4 9 6 11 4 5 -4 -4 -7 -9 -56 -11 -109 -2 -54 -6 -153 -9 -222 -9 -184 -9
-276 -1 -289 4 -6 4 -11 -1 -11 -9 0 -8 -214 2 -230 3 -5 3 -10 -2 -10 -9 0
-8 -214 2 -230 3 -5 3 -10 -2 -10 -9 0 -8 -214 2 -230 3 -5 3 -10 -2 -10 -9 0
-8 -214 2 -230 3 -5 3 -10 -2 -10 -9 0 -8 -214 2 -230 3 -5 3 -10 -2 -10 -9 0
-8 -214 2 -230 3 -5 3 -10 -2 -10 -9 0 -8 -214 2 -230 3 -5 3 -10 -2 -10 -9 0
-8 -214 2 -230 3 -5 3 -10 -2 -10 -9 0 -8 -214 2 -230 3 -5 3 -10 -2 -10 -8 0
-8 -161 0 -183 3 -9 216 -12 940 -12 514 0 938 3 942 6 7 7 8 9136 1 9147 -2
4 -558 7 -1236 7 l-1231 -1 -14 -29 c-8 -17 -23 -57 -33 -90 -23 -68 -119
-342 -129 -365 -3 -8 -7 -18 -8 -22 -2 -5 -4 -10 -5 -13 -1 -3 -4 -9 -5 -15
-1 -5 -3 -11 -5 -12 -1 -2 -3 -10 -5 -18 -2 -8 -20 -60 -40 -115 -20 -55 -38
-104 -39 -110 -2 -5 -9 -23 -15 -40 -7 -16 -15 -41 -17 -54 -3 -14 -8 -29 -12
-35 -4 -6 -7 -13 -8 -16 0 -3 -3 -12 -7 -20 -7 -18 -73 -208 -128 -370 -22
-63 -44 -124 -49 -135 -19 -44 -83 -231 -84 -247 0 -10 -4 -18 -8 -18 -4 0 -8
-7 -8 -16 0 -9 -6 -30 -14 -47 -12 -28 -82 -223 -90 -252 -2 -5 -6 -17 -9 -25
-12 -31 -27 -85 -26 -94 0 -5 -3 -12 -8 -15 -10 -6 -38 -91 -35 -103 1 -5 -3
-8 -8 -8 -5 0 -9 -3 -8 -7 2 -11 -13 -58 -57 -178 -20 -55 -38 -108 -40 -118
-2 -9 -7 -23 -12 -30 -4 -6 -8 -16 -9 -22 -2 -10 -98 -285 -149 -425 -14 -41
-28 -79 -29 -85 -2 -5 -6 -17 -9 -25 -3 -8 -13 -35 -21 -60 -15 -44 -83 -236
-112 -315 -17 -44 -17 -47 -29 -90 -4 -16 -11 -34 -15 -40 -4 -5 -17 -41 -30
-80 -12 -38 -28 -83 -35 -100 -12 -28 -59 -164 -60 -175 0 -3 -4 -11 -8 -18
-5 -7 -11 -24 -13 -39 -3 -15 -9 -32 -13 -38 -5 -5 -12 -23 -16 -40 -10 -34
-10 -35 -18 -55 -3 -8 -20 -55 -37 -105 -17 -49 -38 -107 -46 -127 -7 -21 -10
-38 -6 -38 4 0 2 -4 -3 -8 -10 -6 -34 -72 -41 -111 -1 -8 -9 -18 -16 -22 -7
-5 -10 -9 -6 -9 6 0 -31 -122 -51 -165 -5 -11 -12 -29 -14 -40 -6 -21 -92
-268 -104 -295 -3 -8 -7 -19 -9 -25 -1 -5 -21 -62 -43 -125 -23 -63 -43 -123
-46 -133 -2 -9 -7 -23 -12 -30 -4 -6 -8 -17 -9 -23 -2 -10 -75 -222 -97 -279
-7 -16 -12 -32 -13 -35 0 -3 -3 -12 -7 -20 -12 -31 -59 -166 -62 -180 -2 -8
-13 -40 -25 -70 -22 -57 -78 -215 -81 -228 -1 -4 -6 -18 -11 -32 -6 -14 -11
-29 -12 -35 -2 -5 -6 -17 -9 -25 -7 -19 -77 -220 -84 -240 -4 -12 -6 -12 -15
3 -5 11 -11 24 -12 30 -1 7 -7 26 -13 42 -6 17 -25 68 -41 115 -17 47 -49 137
-72 200 -23 63 -43 120 -44 125 -2 6 -6 19 -10 30 -5 11 -12 31 -16 45 -4 14
-11 34 -16 45 -4 11 -8 25 -10 30 -4 12 -50 139 -88 245 -15 41 -30 84 -33 95
-2 11 -9 29 -13 40 -5 11 -19 49 -30 85 -22 64 -30 87 -50 133 -5 12 -15 42
-21 67 -7 25 -16 50 -19 55 -4 6 -13 28 -19 50 -7 22 -16 49 -21 60 -19 47
-67 184 -75 215 -2 8 -16 43 -25 65 -7 17 -31 87 -35 105 -1 3 -5 12 -8 20
-10 23 -48 134 -50 145 -1 6 -4 12 -7 15 -3 3 -20 50 -38 105 -18 55 -37 109
-42 120 -5 11 -32 88 -60 170 -29 83 -56 159 -60 170 -14 32 -61 169 -64 182
-1 7 -5 16 -9 19 -4 4 -7 13 -7 20 0 7 -5 25 -12 41 -6 15 -12 33 -14 38 -1 6
-12 37 -25 70 -34 93 -89 248 -94 265 -2 8 -17 51 -33 95 -70 193 -80 224 -74
229 3 3 1 6 -4 6 -7 0 -29 55 -40 100 0 3 -6 17 -12 33 -6 15 -20 53 -31 85
-18 52 -59 168 -178 502 -24 69 -46 130 -47 135 -2 6 -8 23 -14 38 -7 16 -12
34 -12 41 0 7 -3 16 -7 20 -4 3 -8 12 -9 19 -1 7 -18 55 -37 107 -20 52 -37
104 -39 115 -2 11 -6 22 -9 25 -3 3 -20 46 -37 95 -17 50 -54 155 -82 235 -29
80 -55 154 -57 165 -3 11 -9 25 -14 30 -4 6 -10 23 -13 38 -2 15 -8 32 -13 39
-4 7 -8 15 -9 18 -4 20 -18 67 -23 75 -3 6 -6 15 -8 20 -1 6 -16 48 -33 95
-17 47 -32 90 -34 95 -2 6 -6 18 -9 28 -4 9 -10 25 -14 35 -3 9 -7 22 -8 27
-7 26 -107 302 -115 317 -6 10 -10 26 -10 36 0 10 -3 22 -7 25 -6 7 -62 160
-67 184 -1 7 -5 16 -9 19 -4 4 -7 14 -7 22 0 8 -6 28 -14 45 -8 18 -24 62 -37
100 -12 37 -25 67 -28 68 -19 3 -2453 3 -2457 0z"/>
<path d="M14163 18889 c2 -9 0 -24 -5 -33 -6 -10 -5 -16 2 -16 6 0 8 -5 5 -11
-10 -15 -12 -79 -3 -79 3 0 3 -13 -2 -30 -5 -16 -6 -30 -2 -30 9 0 8 -53 -2
-68 -3 -6 -2 -13 4 -17 6 -4 8 -11 4 -16 -9 -16 -10 -79 -1 -79 4 0 3 -9 -3
-19 -7 -13 -7 -22 0 -26 7 -4 7 -13 0 -24 -6 -12 -5 -22 1 -28 8 -8 7 -17 0
-32 -8 -15 -9 -21 -1 -21 6 0 8 -5 5 -11 -10 -15 -12 -79 -3 -79 3 0 3 -13 -2
-30 -5 -16 -6 -30 -2 -30 9 0 8 -53 -2 -68 -3 -6 -2 -13 4 -17 6 -4 8 -11 4
-16 -9 -16 -10 -79 -1 -79 4 0 3 -9 -3 -19 -7 -13 -7 -22 0 -26 7 -4 7 -13 0
-24 -6 -12 -5 -22 1 -28 8 -8 7 -17 0 -32 -8 -15 -9 -21 -1 -21 6 0 8 -5 5
-11 -10 -15 -12 -79 -3 -79 3 0 3 -13 -2 -30 -5 -16 -6 -30 -2 -30 9 0 8 -53
-2 -68 -3 -6 -2 -13 4 -17 6 -4 8 -11 4 -16 -9 -16 -10 -79 -1 -79 4 0 3 -9
-3 -19 -7 -13 -7 -22 0 -26 7 -4 7 -13 0 -24 -6 -12 -5 -22 1 -28 8 -8 7 -13
0 -17 -8 -5 -8 -13 -1 -26 7 -13 7 -21 0 -25 -7 -4 -7 -12 0 -25 7 -13 7 -21
0 -25 -6 -4 -7 -13 -1 -24 5 -9 6 -23 2 -30 -5 -7 -6 -22 -4 -32 5 -18 -9 -19
-493 -19 l-499 0 1 -662 c1 -365 2 -665 3 -668 2 -8 837 -4 849 4 7 4 12 3 12
-2 0 -4 30 -7 66 -6 53 2 64 -1 60 -12 -3 -8 -1 -14 4 -14 5 0 5 -13 0 -30 -5
-16 -6 -30 -2 -30 9 0 8 -53 -2 -68 -3 -6 -2 -13 4 -17 6 -4 8 -11 4 -16 -9
-16 -10 -79 -1 -79 4 0 3 -9 -3 -19 -7 -13 -7 -22 0 -26 7 -4 7 -13 0 -24 -6
-12 -5 -22 1 -28 8 -8 7 -17 0 -32 -8 -15 -9 -21 -1 -21 6 0 8 -5 5 -11 -10
-15 -12 -79 -3 -79 3 0 3 -13 -2 -30 -5 -16 -6 -30 -2 -30 9 0 8 -53 -2 -68
-3 -6 -2 -13 4 -17 6 -4 8 -11 4 -16 -9 -16 -10 -79 -1 -79 4 0 3 -9 -3 -19
-7 -13 -7 -22 0 -26 7 -4 7 -13 0 -24 -6 -12 -5 -22 1 -28 8 -8 7 -17 0 -32
-8 -15 -9 -21 -1 -21 6 0 8 -5 5 -11 -10 -15 -12 -79 -3 -79 3 0 3 -13 -2 -30
-5 -16 -6 -30 -2 -30 9 0 8 -53 -2 -68 -3 -6 -2 -13 4 -17 6 -4 8 -11 4 -16
-9 -16 -10 -79 -1 -79 4 0 3 -9 -3 -19 -7 -13 -7 -22 0 -26 7 -4 7 -13 0 -24
-6 -12 -5 -22 1 -28 8 -8 7 -17 0 -32 -8 -15 -9 -21 -1 -21 6 0 8 -5 5 -11
-10 -15 -12 -79 -3 -79 3 0 3 -13 -2 -30 -5 -16 -6 -30 -2 -30 9 0 8 -53 -2
-68 -3 -6 -2 -13 4 -17 6 -4 8 -11 4 -16 -9 -16 -10 -79 -1 -79 4 0 3 -9 -3
-19 -7 -13 -7 -22 0 -26 7 -4 7 -13 0 -24 -6 -12 -5 -22 1 -28 8 -8 7 -17 0
-32 -8 -15 -9 -21 -1 -21 6 0 8 -5 5 -11 -10 -15 -12 -79 -3 -79 3 0 3 -13 -2
-30 -5 -16 -6 -30 -2 -30 9 0 8 -53 -2 -68 -3 -6 -2 -13 4 -17 6 -4 8 -11 4
-16 -9 -16 -10 -79 -1 -79 4 0 3 -9 -3 -19 -7 -13 -7 -22 0 -26 7 -4 7 -12 0
-25 -6 -12 -7 -21 0 -25 6 -3 6 -15 0 -30 -6 -15 -6 -27 0 -30 7 -4 6 -13 0
-26 -8 -13 -7 -19 0 -19 7 0 8 -6 0 -19 -7 -14 -7 -22 0 -26 7 -5 8 -11 1 -19
-6 -7 -6 -17 -1 -26 5 -8 6 -18 3 -24 -8 -13 -10 -66 -2 -66 3 0 3 -20 -1 -45
-4 -25 -3 -48 2 -51 4 -3 3 -14 -2 -25 -8 -13 -7 -19 0 -19 7 0 8 -6 0 -19 -7
-14 -7 -22 0 -26 7 -5 8 -11 1 -19 -6 -7 -6 -17 -1 -26 5 -8 6 -18 3 -24 -8
-13 -10 -66 -2 -66 3 0 3 -20 -1 -45 -4 -25 -3 -48 2 -51 4 -3 3 -14 -2 -25
-8 -13 -7 -19 0 -19 7 0 8 -6 0 -19 -7 -14 -7 -22 0 -26 7 -5 8 -11 1 -19 -6
-7 -6 -17 -1 -26 5 -8 6 -18 3 -24 -8 -13 -10 -66 -2 -66 3 0 3 -20 -1 -45 -4
-25 -3 -48 2 -51 4 -3 3 -14 -2 -25 -8 -13 -7 -19 0 -19 7 0 8 -6 0 -19 -7
-14 -7 -22 0 -26 7 -5 8 -11 1 -19 -6 -7 -6 -17 -1 -26 5 -8 6 -18 3 -24 -8
-12 -10 -66 -2 -66 3 0 3 -22 -1 -50 -4 -27 -3 -50 2 -50 4 0 3 -11 -2 -25 -5
-14 -6 -25 -2 -25 4 0 7 -35 8 -78 1 -80 11 -219 19 -262 2 -14 6 -43 9 -65 2
-22 7 -51 10 -65 3 -14 8 -41 11 -60 3 -19 10 -53 15 -75 6 -22 13 -49 15 -61
3 -12 11 -40 19 -63 9 -22 12 -41 9 -41 -4 0 -2 -5 5 -12 7 -7 12 -21 12 -33
0 -12 4 -25 9 -31 5 -5 11 -18 13 -29 1 -11 13 -40 26 -64 12 -24 22 -50 22
-57 0 -8 4 -14 8 -14 5 0 9 -6 9 -13 0 -7 16 -41 36 -76 21 -34 37 -66 37 -72
0 -5 5 -9 10 -9 6 0 10 -6 10 -13 0 -7 10 -23 23 -37 12 -14 31 -38 41 -55 79
-123 334 -339 474 -400 23 -10 42 -22 42 -27 0 -4 8 -8 18 -8 10 0 22 -4 27
-9 9 -8 191 -78 225 -87 8 -2 60 -15 115 -29 54 -14 113 -27 130 -30 16 -2 53
-7 80 -10 67 -9 90 -13 90 -15 0 -7 189 -14 380 -14 213 0 354 6 415 18 14 3
50 8 80 10 30 3 66 8 80 11 14 3 41 8 60 10 44 5 244 49 315 69 6 1 26 6 45
10 19 5 40 12 45 16 10 9 16 10 39 10 12 0 14 100 15 690 l0 690 -42 -6 c-23
-3 -52 -7 -63 -10 -23 -4 -109 -13 -180 -18 -22 -2 -46 -6 -52 -10 -7 -4 -12
-3 -12 3 0 6 -6 8 -14 5 -17 -7 -256 -11 -262 -5 -2 3 -28 5 -57 6 -29 0 -57
3 -62 6 -6 3 -26 6 -45 8 -96 8 -240 77 -302 146 -35 39 -83 137 -103 212 -16
59 -19 76 -31 173 -4 30 -7 841 -8 1801 l-1 1746 136 0 c74 0 141 3 147 7 7 4
12 4 12 -1 0 -9 920 -9 944 0 9 4 16 3 16 -1 0 -4 171 -6 380 -6 209 1 380 -1
381 -5 1 -3 3 -865 4 -1916 2 -1050 5 -1926 8 -1945 3 -19 8 -64 11 -100 4
-36 9 -78 12 -95 3 -16 8 -43 10 -60 8 -70 27 -162 44 -215 5 -14 11 -38 15
-55 4 -16 8 -37 10 -45 27 -111 136 -339 226 -472 69 -100 298 -338 326 -338
5 0 20 -11 35 -24 14 -14 29 -22 32 -19 3 4 6 1 6 -5 0 -7 7 -12 15 -12 8 0
15 -4 15 -10 0 -5 4 -10 9 -10 5 0 37 -16 70 -35 34 -19 65 -35 69 -36 4 -1
30 -12 57 -24 49 -22 166 -65 189 -70 6 -1 18 -4 26 -8 28 -10 105 -28 128
-30 12 -1 22 -4 22 -7 0 -3 13 -6 30 -6 16 -1 37 -5 47 -9 10 -4 40 -9 68 -11
27 -3 61 -7 75 -10 57 -12 187 -18 390 -19 188 0 259 3 433 19 40 4 115 15
150 22 12 2 41 6 65 9 23 2 46 6 50 9 4 2 25 7 47 10 22 4 69 14 105 22 36 9
72 17 80 19 8 2 15 4 15 5 0 1 9 3 20 5 11 2 47 11 80 22 l60 18 -1 675 c-1
371 -2 681 -3 687 -1 8 -12 11 -33 9 -18 -3 -33 -5 -33 -6 0 -4 -164 -20 -255
-26 -140 -9 -232 -9 -237 -1 -2 4 -8 5 -12 3 -32 -20 -303 17 -338 45 -7 7
-13 9 -13 5 0 -3 -23 5 -51 20 -65 32 -140 107 -172 170 -29 57 -58 150 -50
158 4 3 1 6 -6 6 -7 0 -11 6 -8 13 2 6 -2 34 -9 61 -10 39 -13 408 -14 1831
l0 1782 138 0 c76 0 144 3 150 7 7 4 12 4 12 -1 0 -4 193 -8 430 -8 423 0 430
0 431 20 1 29 1 1243 0 1285 l-1 35 -580 -3 -580 -2 -2 837 -3 838 -905 0
-905 0 -1 -835 -1 -835 -1006 -3 c-554 -1 -1008 1 -1008 5 -1 5 -2 381 -3 838
l-1 830 -908 0 c-830 0 -908 -1 -904 -16z"/>
<path d="M24387 17354 c-1 -2 -51 -5 -111 -8 -59 -4 -131 -9 -159 -13 -29 -3
-61 -7 -72 -8 -11 -1 -40 -5 -65 -8 -25 -4 -58 -9 -75 -11 -16 -2 -30 -5 -30
-6 0 -1 -15 -3 -33 -6 -18 -2 -43 -9 -54 -15 -11 -6 -18 -7 -14 -1 3 5 -32 -1
-77 -13 -45 -12 -86 -23 -92 -24 -5 -1 -28 -7 -50 -13 -22 -6 -45 -12 -52 -14
-25 -5 -119 -36 -150 -50 -17 -8 -37 -14 -44 -14 -7 0 -31 -8 -53 -19 -23 -10
-79 -36 -126 -57 -47 -21 -87 -41 -90 -44 -3 -3 -11 -6 -18 -8 -7 -1 -31 -13
-52 -27 -22 -14 -42 -25 -46 -25 -6 0 -236 -150 -244 -160 -3 -3 -37 -31 -77
-62 -40 -31 -69 -58 -66 -62 4 -3 0 -6 -8 -6 -36 0 -327 -329 -398 -450 -56
-96 -73 -129 -71 -136 1 -4 -4 -10 -12 -15 -7 -5 -13 -12 -13 -16 -1 -4 -11
-30 -23 -57 -12 -27 -22 -55 -22 -62 0 -8 -4 -14 -9 -14 -5 0 -13 -17 -19 -37
-6 -21 -20 -69 -31 -108 -12 -38 -24 -83 -27 -99 -2 -16 -7 -33 -11 -38 -3 -5
-7 -26 -8 -46 -2 -20 -4 -37 -5 -37 -3 0 -9 -49 -14 -115 -3 -36 -6 -65 -7
-65 -1 0 -2 -71 -3 -157 -1 -87 1 -158 4 -158 3 0 6 -17 7 -37 2 -39 10 -108
13 -108 1 0 4 -13 6 -30 20 -124 107 -374 139 -397 6 -4 6 -8 2 -8 -11 0 118
-218 143 -240 3 -3 23 -27 45 -55 51 -65 208 -221 265 -265 25 -19 49 -40 53
-47 4 -7 12 -13 17 -13 9 0 31 -16 64 -45 6 -6 36 -26 66 -45 30 -19 57 -37
60 -40 5 -5 17 -12 115 -67 63 -35 294 -152 298 -151 1 1 25 -9 52 -21 59 -26
226 -92 240 -95 6 -1 16 -5 22 -9 7 -5 21 -10 30 -12 10 -2 74 -21 143 -43
172 -54 334 -100 385 -108 6 -1 15 -3 20 -4 6 -2 15 -4 20 -5 6 -2 12 -4 15
-5 11 -4 75 -18 114 -26 16 -2 33 -7 38 -10 5 -3 23 -7 41 -9 18 -2 82 -16
142 -30 153 -37 186 -45 220 -51 17 -3 38 -10 48 -15 9 -5 17 -7 17 -5 0 3 19
-2 43 -10 23 -9 50 -17 61 -19 49 -11 198 -61 311 -106 17 -7 32 -13 35 -14 3
0 15 -6 28 -13 12 -7 22 -9 22 -5 0 4 4 2 9 -5 4 -7 15 -14 23 -16 8 -1 27 -9
41 -19 15 -9 29 -17 32 -17 8 0 107 -63 135 -87 85 -69 183 -196 194 -251 2
-10 6 -24 9 -32 26 -70 32 -224 11 -311 -9 -35 -17 -68 -18 -74 -6 -29 -58
-125 -68 -125 -6 0 -8 -3 -5 -6 23 -24 -193 -217 -267 -240 -12 -3 -28 -12
-36 -18 -17 -14 -158 -62 -210 -71 -45 -9 -65 -13 -65 -15 0 -1 -13 -3 -30 -5
-16 -3 -52 -7 -80 -11 -73 -10 -430 -10 -500 -1 -33 5 -71 10 -85 12 -14 2
-27 4 -30 5 -3 1 -8 2 -11 2 -3 0 -23 4 -45 9 -21 5 -50 12 -64 15 -75 14
-325 124 -350 153 -3 3 -24 19 -47 34 -211 144 -354 413 -377 712 l-3 40 -863
3 -862 2 4 -24 c3 -14 1 -30 -3 -37 -4 -7 -5 -18 -1 -24 4 -5 8 -35 9 -65 2
-53 6 -84 19 -160 15 -93 22 -124 39 -182 8 -27 11 -48 7 -48 -3 0 -1 -5 6
-12 7 -7 12 -22 12 -33 0 -12 3 -25 8 -29 4 -4 7 -11 7 -14 0 -4 14 -41 30
-82 16 -41 28 -78 27 -82 -1 -5 3 -8 8 -8 5 0 9 -3 8 -7 -2 -12 13 -44 34 -75
10 -14 18 -33 18 -42 0 -9 4 -16 8 -16 5 0 14 -12 21 -27 22 -48 176 -274 200
-293 3 -3 18 -21 33 -41 28 -37 201 -215 253 -259 17 -14 57 -47 90 -73 33
-26 65 -52 71 -57 33 -26 177 -120 184 -120 5 0 22 -12 39 -26 17 -14 31 -23
31 -19 0 3 12 -2 28 -13 79 -56 505 -241 592 -257 3 -1 30 -8 60 -18 114 -34
198 -55 245 -61 17 -2 37 -7 45 -10 14 -5 65 -14 120 -21 14 -2 39 -6 55 -9
17 -3 53 -8 80 -12 28 -3 66 -7 85 -10 157 -19 679 -26 840 -10 155 14 215 21
280 30 54 7 162 25 190 31 14 4 36 8 50 11 32 5 60 11 85 17 11 3 43 10 70 17
28 6 88 23 134 37 47 14 89 26 95 28 6 1 22 6 36 12 14 5 50 18 80 29 30 10
58 23 62 29 4 5 8 6 8 1 0 -5 7 -3 15 4 8 7 15 10 15 6 0 -4 13 0 30 9 16 8
31 15 32 14 5 -1 233 113 238 120 3 3 23 15 45 26 37 19 127 74 150 92 6 4 30
22 55 38 25 17 51 36 58 43 8 7 30 25 50 40 84 62 241 215 307 297 22 28 42
52 45 55 17 16 80 109 80 119 0 6 5 11 10 11 6 0 10 7 10 15 0 8 4 15 9 15 5
0 13 10 17 23 4 12 17 38 29 57 12 19 23 38 23 43 1 4 13 30 27 57 14 28 22
50 19 50 -4 0 -2 6 3 13 8 9 31 67 38 97 1 3 5 12 8 20 4 8 14 44 22 80 22 92
22 90 30 140 4 25 9 54 11 65 23 116 22 431 -1 570 -3 17 -7 44 -9 60 -2 17
-6 37 -9 45 -3 8 -9 33 -13 55 -4 22 -8 46 -10 52 -1 7 -12 43 -23 80 -65 208
-165 390 -311 568 -39 47 -193 198 -247 241 -26 21 -50 41 -53 44 -40 41 -417
266 -460 275 -3 1 -27 12 -55 24 -27 13 -50 23 -50 22 0 -1 -25 9 -55 22 -57
25 -280 106 -309 112 -9 2 -50 15 -91 28 -41 14 -86 28 -100 31 -14 3 -41 10
-60 16 -19 7 -48 14 -64 16 -16 2 -35 9 -42 15 -8 6 -14 9 -14 6 0 -3 -15 -1
-32 4 -18 6 -42 12 -52 14 -10 3 -33 9 -50 14 -17 6 -42 12 -56 14 -14 2 -32
7 -40 10 -8 3 -33 9 -55 13 -22 4 -42 8 -45 9 -3 0 -23 5 -45 10 -22 5 -42 9
-45 10 -3 1 -39 7 -80 14 -41 7 -82 15 -90 18 -8 2 -16 4 -17 4 -2 1 -29 7
-60 14 -32 7 -74 16 -94 19 -20 3 -48 10 -63 15 -14 6 -26 8 -26 6 0 -2 -12 0
-27 6 -16 6 -37 13 -48 15 -58 11 -81 17 -90 22 -5 4 -17 7 -25 9 -19 3 -150
43 -175 53 -11 5 -51 21 -90 36 -38 15 -96 40 -127 56 -32 15 -59 27 -61 26
-1 -2 -9 3 -17 10 -8 7 -35 26 -60 42 -43 28 -125 103 -163 150 -52 64 -99
185 -103 270 -2 30 -4 57 -5 60 -1 3 0 10 1 15 1 6 4 33 5 62 4 62 42 189 67
222 10 13 18 28 18 34 0 23 97 135 160 186 52 42 199 132 213 130 3 0 33 10
67 22 75 27 193 47 330 55 124 7 104 7 215 -1 50 -3 102 -6 118 -5 15 0 27 -4
27 -9 0 -5 8 -7 18 -5 36 10 218 -46 320 -97 203 -102 351 -292 413 -531 12
-44 23 -113 25 -152 1 -39 4 -73 5 -76 1 -3 1 -8 0 -12 0 -4 40 -7 89 -7 49 0
94 -2 100 -6 5 -3 10 -3 10 2 0 8 285 7 307 -1 7 -3 13 -2 13 2 0 7 272 6 303
-2 9 -2 17 -1 17 2 0 8 287 5 307 -2 7 -3 13 -2 13 2 0 7 272 6 303 -2 9 -2
17 -1 17 2 0 4 75 7 167 7 l168 0 -1 60 c-1 71 -12 208 -19 250 -3 17 -10 57
-16 90 -5 33 -11 68 -13 77 -1 10 -5 21 -9 24 -4 4 -7 19 -7 34 0 14 -5 31
-12 38 -7 7 -9 12 -5 12 4 0 -2 21 -12 48 -10 26 -19 49 -19 52 0 3 -5 18 -11
33 -6 16 -11 30 -11 31 0 2 -11 28 -24 57 -13 30 -24 58 -24 63 0 5 -4 12 -9
15 -4 3 -19 28 -31 54 -27 54 -146 237 -183 280 -13 16 -40 47 -59 69 -32 38
-183 189 -212 213 -151 123 -255 200 -324 239 -16 9 -42 25 -59 36 -94 59
-436 213 -505 226 -13 3 -30 10 -37 16 -7 6 -13 8 -13 5 0 -4 -19 0 -41 9 -23
8 -51 16 -63 19 -12 2 -46 11 -76 20 -30 8 -70 18 -89 21 -19 3 -44 10 -57 14
-12 5 -24 7 -27 4 -2 -2 -16 0 -30 5 -14 6 -43 12 -64 15 -21 3 -58 8 -83 12
-25 4 -54 8 -65 9 -11 1 -20 3 -20 4 0 2 -124 14 -290 26 -85 7 -503 14 -508
9z"/>
<path d="M10479 17138 c-1 -51 0 -97 1 -103 1 -5 1 -32 0 -60 -1 -65 -2 -116
-1 -190 0 -33 0 -67 0 -75 0 -8 0 -24 1 -35 1 -21 1 -172 0 -192 -2 -53 -2
-214 0 -238 2 -28 2 -30 1 -120 -1 -97 0 -95 0 -220 0 -111 0 -108 0 -150 -1
-16 -1 -39 -1 -50 1 -122 1 -172 0 -182 -2 -53 -2 -214 0 -238 2 -28 2 -30 1
-120 -1 -97 0 -95 0 -220 0 -111 0 -108 0 -150 -1 -16 -1 -39 -1 -50 1 -122 1
-172 0 -182 -2 -53 -2 -214 0 -238 2 -28 2 -30 1 -120 -1 -97 0 -95 0 -220 0
-111 0 -108 0 -150 -1 -16 -1 -39 -1 -50 1 -122 1 -172 0 -182 -2 -53 -2 -214
0 -238 2 -28 2 -30 1 -120 -1 -97 0 -95 0 -220 0 -111 0 -108 0 -150 -1 -16
-1 -39 -1 -50 1 -122 1 -172 0 -182 -2 -53 -2 -214 0 -238 2 -28 2 -30 1 -120
-1 -97 0 -95 0 -220 0 -111 0 -108 0 -150 -1 -16 -1 -39 -1 -50 1 -122 1 -172
0 -182 -2 -53 -2 -214 0 -238 2 -28 2 -30 1 -120 -1 -97 0 -95 0 -220 0 -111
0 -108 0 -150 -1 -16 -1 -39 -1 -50 1 -122 1 -172 0 -182 -1 -29 -1 -52 -1
-128 0 -44 -1 -95 -2 -113 -2 -17 0 -38 5 -44 9 -17 1816 -19 1821 -3 2 9 1
6768 -2 6788 -1 4 -410 7 -911 7 l-910 0 -1 -92z"/>
<path d="M29157 12294 c-1 -1 -29 -4 -62 -7 -33 -3 -78 -8 -100 -11 -59 -7
-208 -52 -250 -76 -19 -11 -42 -20 -50 -20 -8 0 -15 -3 -15 -7 0 -5 -18 -17
-40 -27 -22 -11 -40 -24 -40 -29 0 -6 -3 -8 -6 -5 -3 4 -14 -1 -24 -10 -10 -9
-27 -24 -37 -32 -83 -63 -223 -225 -216 -251 2 -5 -1 -9 -6 -9 -17 0 -72 -135
-102 -250 -22 -87 -29 -266 -16 -383 8 -71 35 -178 49 -194 6 -7 7 -13 3 -13
-4 0 -2 -7 5 -15 7 -8 9 -15 6 -15 -13 0 58 -124 107 -190 221 -291 547 -420
972 -386 74 6 120 12 120 16 0 1 9 3 20 4 24 4 104 24 125 33 8 3 21 7 28 9
56 11 231 115 301 179 66 60 101 96 101 105 0 4 4 10 8 12 25 10 113 161 144
248 63 174 73 422 26 620 -2 8 -12 38 -21 65 -9 28 -16 52 -15 55 2 3 -7 20
-20 38 -13 17 -21 32 -17 32 13 0 -102 156 -150 205 -126 126 -283 223 -420
259 -5 1 -21 6 -35 11 -14 4 -36 9 -50 11 -14 1 -25 3 -25 4 0 9 -289 32 -298
24z"/>
</g>
</svg>
